<svg width="81" height="114" viewBox="0 0 81 114" fill="none" xmlns="http://www.w3.org/2000/svg">
<path d="M78.75 0H2C0.89543 0 0 0.89543 0 2V112C0 113.105 0.89543 114 2 114H78.75C79.8546 114 80.75 113.105 80.75 112V2C80.75 0.89543 79.8546 0 78.75 0Z" fill="#F5EFF3"/>
<path d="M40.3745 43.5391C41.7237 43.5391 42.8174 44.6024 42.8174 45.9141C42.8174 47.2257 41.7237 48.2891 40.3745 48.2891C39.0253 48.2891 37.9316 47.2257 37.9316 45.9141C37.9316 44.6024 39.0253 43.5391 40.3745 43.5391Z" fill="#D0608D"/>
<path d="M28.8882 57.5074C31.2896 54.3621 36.0247 54.3621 38.4261 57.5074L48.3143 70.459H19L28.8882 57.5074Z" fill="#AB2680"/>
<path d="M43.3704 54.3617C45.156 51.7336 49.0292 51.7336 50.8148 54.3617L61.7497 70.4562H32.4355L43.3704 54.3617Z" fill="#D0608D"/>
</svg>
